<?xml version="1.0" encoding="utf-8"?>
<!-- Generator: Adobe Illustrator 23.0.1, SVG Export Plug-In . SVG Version: 6.00 Build 0)  -->
<svg version="1.1" id="Layer_1" xmlns="http://www.w3.org/2000/svg" xmlns:xlink="http://www.w3.org/1999/xlink" x="0px" y="0px"
	 viewBox="0 0 222.5 286.8" style="enable-background:new 0 0 222.5 286.8;" xml:space="preserve">
<style type="text/css">
	.st0{fill:#FFFFFF;}
</style>
<title>generator_icon</title>
<path class="st0" d="M52.2,276.6c1.2-2.8,2.5-5.5,3.6-8.3c1.3-3.1,2.4-6.2,3.6-9.3c1.9-4.9,3.8-9.8,5.7-14.6
	c3.4-8.5,6.8-17,10.2-25.4c3.3-8.2,6.6-16.5,9.8-24.7c3.4-8.6,6.8-17.1,10.2-25.7c3.3-8.4,6.7-16.7,10-25.1
	c3.5-8.7,6.9-17.3,10.4-26c0.5-1.2,1.1-2.3,1.8-3.7H73.4c3-7.6,5.9-14.9,8.8-22.3c0.9-2.4,1.9-4.8,2.8-7.3c3-7.6,6-15.1,9.1-22.7
	s6.1-15.2,9.2-22.9c2.5-6.3,5.1-12.5,7.6-18.8c1.4-3.6,2.8-7.2,4.2-10.8c0.3-0.8,0.6-1.3,1.7-1.3c25,0,50.1,0,75.1,0h1.1
	c-1.1,2.1-2.2,4.1-3.3,6c-4.1,7.2-8.1,14.4-12.2,21.6L166.8,54l-9.5,16.6c-3.5,6.2-7,12.4-10.5,18.6c-1.9,3.3-3.8,6.6-5.7,9.9
	c-0.2,0.3-0.3,0.6-0.5,1.1h49.3c-1.9,2.4-3.7,4.4-5.3,6.6c-2.3,3-4.5,6-6.8,9c-3.6,4.7-7.2,9.3-10.8,13.9c-3.2,4.2-6.5,8.3-9.7,12.5
	c-3.4,4.4-6.8,8.8-10.3,13.2c-3.2,4.1-6.3,8.1-9.5,12.2c-3.6,4.6-7.2,9.3-10.8,13.9c-3.2,4.2-6.5,8.3-9.7,12.5l-10.3,13.2l-10,12.9
	l-10.3,13.3c-3.2,4.1-6.4,8.2-9.6,12.3l-10.6,13.6c-3.2,4.1-6.4,8.2-9.6,12.3c-1.3,1.7-2.8,3.3-4.1,5L52.2,276.6z"/>
<path class="st0" d="M79.3,47.4c0.4,0.9,0.6,1.8,0.9,2.7c0,0.3-0.5,0.8-0.9,1c-3.7,1.5-7.4,2.7-11,4.4c-4,1.9-7.8,4-11.5,6.3
	c-3.5,2.2-6.9,4.6-10.1,7.3c-3.6,3-7,6.4-10.4,9.6C32.2,82.6,29.2,87.4,26,92c-4.2,6-7,12.7-9.8,19.4c-2.9,7.4-4.8,15.2-5.7,23.2
	c-0.9,7.3-0.9,14.7-0.1,22c0.6,7.5,2.2,14.8,4.7,21.9c2.6,7.1,5.5,14.2,9.8,20.6c3.2,4.8,6.7,9.4,10.4,13.9c3,3.4,6.3,6.6,9.8,9.6
	c2.2,2,4.6,3.6,7,5.4c0.2,0.2,0.4,0.4,0.7,0.6l-2,2.9c-3-2.4-6-4.6-8.8-7c-6-5.3-11.3-11.2-16-17.6c-3.8-5.5-7.2-11.2-10-17.3
	c-4.4-8.7-6.8-17.9-8.3-27.4c-1.1-7.2-1.5-14.4-1-21.7c0.6-12.4,3.5-24.6,8.5-36c2.6-6.2,5.9-12.1,9.8-17.5c3-4.1,6.3-8,9.7-11.8
	c3.2-3.5,6.7-6.7,10.4-9.6c4.9-3.9,10.2-7.4,15.8-10.3C66.6,52,72.8,49.4,79.3,47.4z"/>
<path class="st0" d="M206.8,112.2c0.7-0.2,1.3-0.4,2-0.7c1-0.4,1.6,0,1.9,1c2,6.1,3.5,12.5,4.4,18.9c1,6.6,1.3,13.2,1,19.9
	c-0.3,8.3-1.6,16.5-4,24.4c-1.3,4.4-2.9,8.7-4.7,12.9c-2.9,6.1-6,12.3-10.1,17.7c-3.1,4.1-6.4,8.1-9.9,11.8c-3,3.2-6.3,6.2-9.8,9
	c-6.3,5.1-13.2,9.4-20.5,12.9c-9.4,4.5-19.4,7.6-29.7,9.2c-7.5,1.1-15.1,1.4-22.7,1c-2.4-0.1-4.8-0.5-7.3-0.7l0.5-3.4
	c1.2,0.1,2.3,0.2,3.4,0.3c6.7,0.7,13.5,0.7,20.2,0c8.4-0.8,16.6-2.7,24.6-5.6c6.5-2.4,12.8-5.4,18.7-9c6.5-3.9,12.5-8.6,17.9-13.9
	c5.1-5.1,9.7-10.6,13.7-16.6c4.3-6.3,7.3-13.1,10.2-20.1c3.1-7.9,5.1-16.2,5.8-24.7c1.3-11.7,0.4-23.5-2.5-34.9
	c-0.7-2.7-1.6-5.4-2.4-8.1C207.3,113.2,207.1,112.7,206.8,112.2z"/>
</svg>
