<svg id="Layer_1" data-name="Layer 1" xmlns="http://www.w3.org/2000/svg" viewBox="0 0 222.5 286.84"><defs><style>.cls-1{fill:#fff;}</style></defs><title>generator_icon</title><path class="cls-1" d="M269.7,307.46H47.2V20.62H269.7ZM99.39,297.22l.25.07c1.38-1.66,2.79-3.29,4.13-5,3.2-4.08,6.37-8.19,9.56-12.29L124,266.33c3.18-4.09,6.39-8.17,9.57-12.26l10.31-13.3,10-12.9,10.26-13.21c3.24-4.16,6.5-8.3,9.73-12.46,3.6-4.64,7.17-9.29,10.77-13.92,3.16-4.07,6.33-8.12,9.49-12.19q5.15-6.6,10.26-13.21c3.24-4.16,6.5-8.3,9.74-12.47q5.38-6.94,10.76-13.92c2.29-3,4.51-6,6.81-9,1.66-2.14,3.4-4.21,5.32-6.58H187.7c.25-.54.37-.85.53-1.13,1.91-3.31,3.85-6.61,5.74-9.93,3.55-6.2,7.07-12.42,10.61-18.64L214,74.64l10.65-18.77q6.1-10.77,12.2-21.55c1.09-2,2.14-3.92,3.28-6h-1.1q-37.55,0-75.1,0c-1.06,0-1.37.48-1.68,1.29-1.37,3.63-2.74,7.25-4.17,10.84-2.5,6.27-5.07,12.51-7.58,18.77q-4.6,11.46-9.18,22.93t-9.08,22.69c-1,2.41-1.87,4.85-2.82,7.26-2.92,7.37-5.85,14.73-8.84,22.28h44.19c-.69,1.41-1.33,2.54-1.82,3.74q-5.24,13-10.42,26-5,12.53-10,25.07-5.12,12.84-10.25,25.67-4.92,12.36-9.84,24.73-5.07,12.72-10.15,25.43c-1.93,4.86-3.8,9.75-5.7,14.63-1.2,3.09-2.37,6.2-3.63,9.27C101.85,291.68,100.6,294.44,99.39,297.22ZM126.47,68a109.34,109.34,0,0,0-18.58,7.84A103.75,103.75,0,0,0,92.15,86.15a95.58,95.58,0,0,0-10.41,9.6A147.15,147.15,0,0,0,72,107.56,91.52,91.52,0,0,0,62.14,125a100,100,0,0,0-8.51,36.05,98.44,98.44,0,0,0,1,21.69c1.58,9.49,4,18.75,8.33,27.42a118.45,118.45,0,0,0,10,17.15A110.33,110.33,0,0,0,89,245c2.8,2.45,5.81,4.66,8.8,7l2-2.92c-.28-.24-.5-.44-.73-.62-2.33-1.79-4.79-3.43-7-5.4a102.47,102.47,0,0,1-9.75-9.57A157.38,157.38,0,0,1,72,219.65c-4.27-6.36-7.14-13.46-9.78-20.6a87.82,87.82,0,0,1-4.73-21.9,99.52,99.52,0,0,1,.13-22A87.86,87.86,0,0,1,63.25,132c2.79-6.73,5.56-13.42,9.77-19.43,3.23-4.6,6.23-9.37,10.33-13.27,3.42-3.26,6.76-6.62,10.37-9.63a92,92,0,0,1,10.13-7.31,114.91,114.91,0,0,1,11.53-6.3c3.57-1.7,7.35-2.94,11-4.44.4-.17,1-.72.94-1A16.51,16.51,0,0,0,126.47,68ZM254,132.84a13.22,13.22,0,0,1,.59,1.4c.8,2.69,1.66,5.36,2.36,8.08a98.34,98.34,0,0,1,2.49,34.85,87.33,87.33,0,0,1-5.82,24.68c-2.89,7-5.93,13.77-10.19,20.05a108.15,108.15,0,0,1-13.69,16.62,98.72,98.72,0,0,1-17.88,13.89,105.45,105.45,0,0,1-18.7,9A101,101,0,0,1,168.6,267a98.53,98.53,0,0,1-20.17,0c-1.09-.11-2.18-.19-3.35-.29l-.5,3.39c2.51.26,4.91.63,7.32.72a116.58,116.58,0,0,0,22.71-1,107,107,0,0,0,29.66-9.16,103.91,103.91,0,0,0,20.48-12.94,92.44,92.44,0,0,0,9.77-9c3.51-3.74,6.76-7.75,9.89-11.83,4.16-5.42,7.22-11.54,10.11-17.68a104.71,104.71,0,0,0,4.73-12.94,95,95,0,0,0,4-24.37,105.2,105.2,0,0,0-1-19.9,107.73,107.73,0,0,0-4.49-18.85c-.33-1-.87-1.39-1.9-1C255.32,132.41,254.67,132.6,254,132.84Z" transform="translate(-47.2 -20.62)"/><path d="M99.39,297.22c1.21-2.78,2.46-5.54,3.61-8.34,1.26-3.07,2.43-6.18,3.63-9.27,1.9-4.88,3.77-9.77,5.7-14.63q5.06-12.72,10.15-25.43,4.93-12.36,9.84-24.73,5.12-12.84,10.25-25.67,5-12.54,10-25.07,5.19-13,10.42-26c.49-1.2,1.13-2.33,1.82-3.74H120.62c3-7.55,5.92-14.91,8.84-22.28.95-2.41,1.86-4.85,2.82-7.26q4.53-11.34,9.08-22.69t9.18-22.93c2.51-6.26,5.08-12.5,7.58-18.77,1.43-3.59,2.8-7.21,4.17-10.84.31-.81.62-1.29,1.68-1.29q37.54.06,75.1,0h1.1c-1.14,2.09-2.19,4.06-3.28,6q-6.09,10.78-12.2,21.55L214,74.64l-9.46,16.62C201,97.48,197.52,103.7,194,109.9c-1.89,3.32-3.83,6.62-5.74,9.93-.16.28-.28.59-.53,1.13H237c-1.92,2.37-3.66,4.44-5.32,6.58-2.3,3-4.52,6-6.81,9q-5.35,7-10.76,13.92c-3.24,4.17-6.5,8.31-9.74,12.47q-5.13,6.6-10.26,13.21c-3.16,4.07-6.33,8.12-9.49,12.19-3.6,4.63-7.17,9.28-10.77,13.92-3.23,4.16-6.49,8.3-9.73,12.46l-10.26,13.21-10,12.9-10.31,13.3c-3.18,4.09-6.39,8.17-9.57,12.26L113.33,280c-3.19,4.1-6.36,8.21-9.56,12.29-1.34,1.69-2.75,3.32-4.13,5Z" transform="translate(-47.2 -20.62)"/><path d="M126.47,68a16.51,16.51,0,0,1,.86,2.67c0,.28-.54.83-.94,1-3.66,1.5-7.44,2.74-11,4.44a114.91,114.91,0,0,0-11.53,6.3,92,92,0,0,0-10.13,7.31c-3.61,3-7,6.37-10.37,9.63-4.1,3.9-7.1,8.67-10.33,13.27-4.21,6-7,12.7-9.77,19.43a87.86,87.86,0,0,0-5.68,23.18,99.52,99.52,0,0,0-.13,22,87.82,87.82,0,0,0,4.73,21.9c2.64,7.14,5.51,14.24,9.78,20.6a157.38,157.38,0,0,0,10.39,13.86,102.47,102.47,0,0,0,9.75,9.57c2.16,2,4.62,3.61,7,5.4.23.18.45.38.73.62l-2,2.92c-3-2.37-6-4.58-8.8-7a110.33,110.33,0,0,1-16-17.64A118.45,118.45,0,0,1,63,210.2c-4.38-8.67-6.75-17.93-8.33-27.42a98.44,98.44,0,0,1-1-21.69,100,100,0,0,1,8.51-36A91.52,91.52,0,0,1,72,107.56a147.15,147.15,0,0,1,9.71-11.81,95.58,95.58,0,0,1,10.41-9.6A103.75,103.75,0,0,1,107.89,75.8,109.34,109.34,0,0,1,126.47,68Z" transform="translate(-47.2 -20.62)"/><path d="M254,132.84c.68-.24,1.33-.43,2-.7,1-.43,1.57,0,1.9,1A107.73,107.73,0,0,1,262.34,152a105.2,105.2,0,0,1,1,19.9,95,95,0,0,1-4,24.37,104.71,104.71,0,0,1-4.73,12.94c-2.89,6.14-6,12.26-10.11,17.68-3.13,4.08-6.38,8.09-9.89,11.83a92.44,92.44,0,0,1-9.77,9,103.91,103.91,0,0,1-20.48,12.94,107,107,0,0,1-29.66,9.16,116.58,116.58,0,0,1-22.71,1c-2.41-.09-4.81-.46-7.32-.72l.5-3.39c1.17.1,2.26.18,3.35.29a98.53,98.53,0,0,0,20.17,0,101,101,0,0,0,24.55-5.56,105.45,105.45,0,0,0,18.7-9,98.72,98.72,0,0,0,17.88-13.89,108.15,108.15,0,0,0,13.69-16.62c4.26-6.28,7.3-13.1,10.19-20.05a87.33,87.33,0,0,0,5.82-24.68,98.34,98.34,0,0,0-2.49-34.85c-.7-2.72-1.56-5.39-2.36-8.08A13.22,13.22,0,0,0,254,132.84Z" transform="translate(-47.2 -20.62)"/></svg>